<svg id="SvgjsSvg1340" width="510.2624816894531" height="812.6625061035156" xmlns="http://www.w3.org/2000/svg" version="1.1" xmlns:xlink="http://www.w3.org/1999/xlink" xmlns:svgjs="http://svgjs.com/svgjs"><defs id="SvgjsDefs1341"><pattern patternUnits="userSpaceOnUse" id="pattern_mark_0" width="300" height="300"><text x="150" y="100" fill="rgba(229,229,229,0.8)" font-size="18" transform="rotate(-45, 150, 150)" style="dominant-baseline: middle; text-anchor: middle;"></text></pattern><pattern patternUnits="userSpaceOnUse" id="pattern_mark_1" width="300" height="300"><text x="150" y="200" fill="rgba(229,229,229,0.8)" font-size="18" transform="rotate(-45, 150, 150)" style="dominant-baseline: middle; text-anchor: middle;"></text></pattern><marker id="SvgjsMarker1359" markerWidth="13" markerHeight="9" refX="9.5" refY="4.5" viewBox="0 0 13 9" orient="auto" markerUnits="userSpaceOnUse" stroke-dasharray="0,0"><path id="SvgjsPath1360" d="M0,0 L13,4.5 L0,9 L0,0" fill="#323232" stroke="#323232" stroke-width="1"></path></marker><marker id="SvgjsMarker1363" markerWidth="13" markerHeight="9" refX="9.5" refY="4.5" viewBox="0 0 13 9" orient="auto" markerUnits="userSpaceOnUse" stroke-dasharray="0,0"><path id="SvgjsPath1364" d="M0,0 L13,4.5 L0,9 L0,0" fill="#323232" stroke="#323232" stroke-width="1"></path></marker><marker id="SvgjsMarker1381" markerWidth="13" markerHeight="9" refX="9.5" refY="4.5" viewBox="0 0 13 9" orient="auto" markerUnits="userSpaceOnUse" stroke-dasharray="0,0"><path id="SvgjsPath1382" d="M0,0 L13,4.5 L0,9 L0,0" fill="#323232" stroke="#323232" stroke-width="1"></path></marker><marker id="SvgjsMarker1385" markerWidth="13" markerHeight="9" refX="9.5" refY="4.5" viewBox="0 0 13 9" orient="auto" markerUnits="userSpaceOnUse" stroke-dasharray="0,0"><path id="SvgjsPath1386" d="M0,0 L13,4.5 L0,9 L0,0" fill="#323232" stroke="#323232" stroke-width="1"></path></marker><marker id="SvgjsMarker1413" markerWidth="13" markerHeight="9" refX="9.5" refY="4.5" viewBox="0 0 13 9" orient="auto" markerUnits="userSpaceOnUse" stroke-dasharray="0,0"><path id="SvgjsPath1414" d="M0,0 L13,4.5 L0,9 L0,0" fill="#323232" stroke="#323232" stroke-width="1"></path></marker><marker id="SvgjsMarker1425" markerWidth="13" markerHeight="9" refX="9.5" refY="4.5" viewBox="0 0 13 9" orient="auto" markerUnits="userSpaceOnUse" stroke-dasharray="0,0"><path id="SvgjsPath1426" d="M0,0 L13,4.5 L0,9 L0,0" fill="#323232" stroke="#323232" stroke-width="1"></path></marker><marker id="SvgjsMarker1437" markerWidth="13" markerHeight="9" refX="9.5" refY="4.5" viewBox="0 0 13 9" orient="auto" markerUnits="userSpaceOnUse" stroke-dasharray="0,0"><path id="SvgjsPath1438" d="M0,0 L13,4.5 L0,9 L0,0" fill="#323232" stroke="#323232" stroke-width="1"></path></marker><marker id="SvgjsMarker1447" markerWidth="13" markerHeight="9" refX="9.5" refY="4.5" viewBox="0 0 13 9" orient="auto" markerUnits="userSpaceOnUse" stroke-dasharray="0,0"><path id="SvgjsPath1448" d="M0,0 L13,4.5 L0,9 L0,0" fill="#323232" stroke="#323232" stroke-width="1"></path></marker><marker id="SvgjsMarker1451" markerWidth="13" markerHeight="9" refX="9.5" refY="4.5" viewBox="0 0 13 9" orient="auto" markerUnits="userSpaceOnUse" stroke-dasharray="0,0"><path id="SvgjsPath1452" d="M0,0 L13,4.5 L0,9 L0,0" fill="#323232" stroke="#323232" stroke-width="1"></path></marker><marker id="SvgjsMarker1455" markerWidth="13" markerHeight="9" refX="9.5" refY="4.5" viewBox="0 0 13 9" orient="auto" markerUnits="userSpaceOnUse" stroke-dasharray="0,0"><path id="SvgjsPath1456" d="M0,0 L13,4.5 L0,9 L0,0" fill="#323232" stroke="#323232" stroke-width="1"></path></marker><marker id="SvgjsMarker1459" markerWidth="13" markerHeight="9" refX="9.5" refY="4.5" viewBox="0 0 13 9" orient="auto" markerUnits="userSpaceOnUse" stroke-dasharray="0,0"><path id="SvgjsPath1460" d="M0,0 L13,4.5 L0,9 L0,0" fill="#323232" stroke="#323232" stroke-width="1"></path></marker><marker id="SvgjsMarker1463" markerWidth="13" markerHeight="9" refX="9.5" refY="4.5" viewBox="0 0 13 9" orient="auto" markerUnits="userSpaceOnUse" stroke-dasharray="0,0"><path id="SvgjsPath1464" d="M0,0 L13,4.5 L0,9 L0,0" fill="#323232" stroke="#323232" stroke-width="1"></path></marker><marker id="SvgjsMarker1473" markerWidth="13" markerHeight="9" refX="9.5" refY="4.5" viewBox="0 0 13 9" orient="auto" markerUnits="userSpaceOnUse" stroke-dasharray="0,0"><path id="SvgjsPath1474" d="M0,0 L13,4.5 L0,9 L0,0" fill="#323232" stroke="#323232" stroke-width="1"></path></marker><marker id="SvgjsMarker1509" markerWidth="13" markerHeight="9" refX="9.5" refY="4.5" viewBox="0 0 13 9" orient="auto" markerUnits="userSpaceOnUse" stroke-dasharray="0,0"><path id="SvgjsPath1510" d="M0,0 L13,4.5 L0,9 L0,0" fill="#323232" stroke="#323232" stroke-width="1"></path></marker><marker id="SvgjsMarker1513" markerWidth="13" markerHeight="9" refX="9.5" refY="4.5" viewBox="0 0 13 9" orient="auto" markerUnits="userSpaceOnUse" stroke-dasharray="0,0"><path id="SvgjsPath1514" d="M0,0 L13,4.5 L0,9 L0,0" fill="#323232" stroke="#323232" stroke-width="1"></path></marker><marker id="SvgjsMarker1523" markerWidth="13" markerHeight="9" refX="9.5" refY="4.5" viewBox="0 0 13 9" orient="auto" markerUnits="userSpaceOnUse" stroke-dasharray="0,0"><path id="SvgjsPath1524" d="M0,0 L13,4.5 L0,9 L0,0" fill="#323232" stroke="#323232" stroke-width="1"></path></marker><marker id="SvgjsMarker1533" markerWidth="13" markerHeight="9" refX="9.5" refY="4.5" viewBox="0 0 13 9" orient="auto" markerUnits="userSpaceOnUse" stroke-dasharray="0,0"><path id="SvgjsPath1534" d="M0,0 L13,4.5 L0,9 L0,0" fill="#323232" stroke="#323232" stroke-width="1"></path></marker><marker id="SvgjsMarker1537" markerWidth="13" markerHeight="9" refX="9.5" refY="4.5" viewBox="0 0 13 9" orient="auto" markerUnits="userSpaceOnUse" stroke-dasharray="0,0"><path id="SvgjsPath1538" d="M0,0 L13,4.5 L0,9 L0,0" fill="#323232" stroke="#323232" stroke-width="1"></path></marker><marker id="SvgjsMarker1547" markerWidth="13" markerHeight="9" refX="9.5" refY="4.5" viewBox="0 0 13 9" orient="auto" markerUnits="userSpaceOnUse" stroke-dasharray="0,0"><path id="SvgjsPath1548" d="M0,0 L13,4.5 L0,9 L0,0" fill="#323232" stroke="#323232" stroke-width="1"></path></marker><marker id="SvgjsMarker1563" markerWidth="13" markerHeight="9" refX="9.5" refY="4.5" viewBox="0 0 13 9" orient="auto" markerUnits="userSpaceOnUse" stroke-dasharray="0,0"><path id="SvgjsPath1564" d="M0,0 L13,4.5 L0,9 L0,0" fill="#000000" stroke="#000000" stroke-width="1"></path></marker><marker id="SvgjsMarker1573" markerWidth="13" markerHeight="9" refX="9.5" refY="4.5" viewBox="0 0 13 9" orient="auto" markerUnits="userSpaceOnUse" stroke-dasharray="0,0"><path id="SvgjsPath1574" d="M0,0 L13,4.5 L0,9 L0,0" fill="#323232" stroke="#323232" stroke-width="1"></path></marker><marker id="SvgjsMarker1577" markerWidth="13" markerHeight="9" refX="9.5" refY="4.5" viewBox="0 0 13 9" orient="auto" markerUnits="userSpaceOnUse" stroke-dasharray="0,0"><path id="SvgjsPath1578" d="M0,0 L13,4.5 L0,9 L0,0" fill="#323232" stroke="#323232" stroke-width="1"></path></marker><marker id="SvgjsMarker1581" markerWidth="13" markerHeight="9" refX="9.5" refY="4.5" viewBox="0 0 13 9" orient="auto" markerUnits="userSpaceOnUse" stroke-dasharray="0,0"><path id="SvgjsPath1582" d="M0,0 L13,4.5 L0,9 L0,0" fill="#323232" stroke="#323232" stroke-width="1"></path></marker><marker id="SvgjsMarker1585" markerWidth="13" markerHeight="9" refX="9.5" refY="4.5" viewBox="0 0 13 9" orient="auto" markerUnits="userSpaceOnUse" stroke-dasharray="0,0"><path id="SvgjsPath1586" d="M0,0 L13,4.5 L0,9 L0,0" fill="#323232" stroke="#323232" stroke-width="1"></path></marker></defs><rect id="svgbackgroundid" width="510.2624816894531" height="812.6625061035156" fill="#ffffff"></rect><rect id="SvgjsRect1343" width="510.2624816894531" height="812.6625061035156" fill="url(#pattern_mark_0)"></rect><rect id="SvgjsRect1344" width="510.2624816894531" height="812.6625061035156" fill="url(#pattern_mark_1)"></rect><g id="SvgjsG1345" transform="translate(210.83749389648438,25.00418980916342)"><path id="SvgjsPath1346" d="M 15 0L 85 0C 105 0 105 45 85 45L 15 45C -5 45 -5 0 15 0Z" stroke="rgba(50,50,50,1)" stroke-width="1.5" fill-opacity="1" fill="#ffffff"></path><g id="SvgjsG1347"><text id="SvgjsText1348" font-family="微软雅黑" text-anchor="middle" font-size="13px" width="80px" fill="#323232" font-weight="400" align="middle" lineHeight="125%" anchor="middle" family="微软雅黑" size="13px" weight="400" font-style="" opacity="1" y="11.875" transform="rotate(0)"><tspan id="SvgjsTspan1349" dy="16.25" x="50"><tspan id="SvgjsTspan1350" style="">开始</tspan></tspan></text></g></g><g id="SvgjsG1351" transform="translate(55.00416056315112,99.18866302620651)"><path id="SvgjsPath1352" d="M 0 0L 100 0L 100 45L 0 45Z" stroke="rgba(50,50,50,1)" stroke-width="1.5" fill-opacity="1" fill="#ffffff"></path><g id="SvgjsG1353"><text id="SvgjsText1354" font-family="微软雅黑" text-anchor="middle" font-size="13px" width="80px" fill="#323232" font-weight="400" align="middle" lineHeight="125%" anchor="middle" family="微软雅黑" size="13px" weight="400" font-style="" opacity="1" y="11.875" transform="rotate(0)"><tspan id="SvgjsTspan1355" dy="16.25" x="50"><tspan id="SvgjsTspan1356" style="">收集数据</tspan></tspan></text></g></g><g id="SvgjsG1357"><path id="SvgjsPath1358" d="M210.08749389648438 47.50418980916342L105.00416056315112 47.50418980916342L105.00416056315112 96.48866302620651" stroke="#323232" stroke-width="1.5" fill="none" marker-end="url(#SvgjsMarker1359)"></path></g><g id="SvgjsG1361"><path id="SvgjsPath1362" d="M105.00416056315112 144.93866302620648L105.00416056315112 158.4929560671796L105.00416056315112 158.4929560671796L105.00416056315112 170.09724910815268" stroke="#323232" stroke-width="1.5" fill="none" marker-end="url(#SvgjsMarker1363)"></path></g><g id="SvgjsG1365" transform="translate(55.00416056315112,173.3731362432496)"><path id="SvgjsPath1366" d="M 0 0L 100 0L 100 45L 0 45Z" stroke="rgba(50,50,50,1)" stroke-width="1.5" fill-opacity="1" fill="#ffffff"></path><g id="SvgjsG1367"><text id="SvgjsText1368" font-family="微软雅黑" text-anchor="middle" font-size="13px" width="80px" fill="#323232" font-weight="400" align="middle" lineHeight="125%" anchor="middle" family="微软雅黑" size="13px" weight="400" font-style="" opacity="1" y="11.875" transform="rotate(0)"><tspan id="SvgjsTspan1369" dy="16.25" x="50"><tspan id="SvgjsTspan1370" style="">数据前处理</tspan></tspan></text></g></g><g id="SvgjsG1371" transform="translate(210.83749389648438,99.18866302620651)"><path id="SvgjsPath1372" d="M 0 0L 100 0L 100 45L 0 45Z" stroke="rgba(50,50,50,1)" stroke-width="1.5" fill-opacity="1" fill="#ffffff"></path><g id="SvgjsG1373"><text id="SvgjsText1374" font-family="微软雅黑" text-anchor="middle" font-size="13px" width="80px" fill="#323232" font-weight="400" align="middle" lineHeight="125%" anchor="middle" family="微软雅黑" size="13px" weight="400" font-style="" opacity="1" y="3.375" transform="rotate(0)"><tspan id="SvgjsTspan1375" dy="16.25" x="50"><tspan id="SvgjsTspan1376" style="">自定义</tspan></tspan><tspan id="SvgjsTspan1377" dy="16.25" x="50"><tspan id="SvgjsTspan1378" style="">模型结构</tspan></tspan></text></g></g><g id="SvgjsG1379"><path id="SvgjsPath1380" d="M260.8374938964844 70.7541898091634L260.8374938964844 84.59642641768497L260.8374938964844 84.59642641768497L260.8374938964844 96.48866302620651" stroke="#323232" stroke-width="1.5" fill="none" marker-end="url(#SvgjsMarker1381)"></path></g><g id="SvgjsG1383"><path id="SvgjsPath1384" d="M105.00416056315112 218.45646957658298L105.00416056315112 232.63203951843786L105.00416056315112 232.63203951843786L105.00416056315112 244.85760946029274" stroke="#323232" stroke-width="1.5" fill="none" marker-end="url(#SvgjsMarker1385)"></path></g><g id="SvgjsG1387" transform="translate(55.00416056315112,247.55760946029272)"><path id="SvgjsPath1388" d="M 0 0L 100 0L 100 45L 0 45Z" stroke="rgba(50,50,50,1)" stroke-width="1.5" fill-opacity="1" fill="#ffffff"></path><g id="SvgjsG1389"><text id="SvgjsText1390" font-family="微软雅黑" text-anchor="middle" font-size="13px" width="80px" fill="#323232" font-weight="400" align="middle" lineHeight="125%" anchor="middle" family="微软雅黑" size="13px" weight="400" font-style="" opacity="1" y="11.875" transform="rotate(0)"><tspan id="SvgjsTspan1391" dy="16.25" x="50"><tspan id="SvgjsTspan1392" style="">数据拆分</tspan></tspan></text></g></g><g id="SvgjsG1393" transform="translate(55.00416056315112,507.611029111422)"><path id="SvgjsPath1394" d="M 15 0L 100 0L 85 45L 0 45L 15 0Z" stroke="rgba(50,50,50,1)" stroke-width="1.5" fill-opacity="1" fill="#ffffff"></path><g id="SvgjsG1395"><text id="SvgjsText1396" font-family="微软雅黑" text-anchor="middle" font-size="13px" width="70px" fill="#323232" font-weight="400" align="middle" lineHeight="125%" anchor="middle" family="微软雅黑" size="13px" weight="400" font-style="" opacity="1" y="11.875" transform="rotate(0)"><tspan id="SvgjsTspan1397" dy="16.25" x="50"><tspan id="SvgjsTspan1398" style="">测试集</tspan></tspan></text></g></g><g id="SvgjsG1399" transform="translate(55.00416056315112,408.4265558943789)"><path id="SvgjsPath1400" d="M 15 0L 100 0L 85 45L 0 45L 15 0Z" stroke="rgba(50,50,50,1)" stroke-width="1.5" fill-opacity="1" fill="#ffffff"></path><g id="SvgjsG1401"><text id="SvgjsText1402" font-family="微软雅黑" text-anchor="middle" font-size="13px" width="70px" fill="#323232" font-weight="400" align="middle" lineHeight="125%" anchor="middle" family="微软雅黑" size="13px" weight="400" font-style="" opacity="1" y="11.875" transform="rotate(0)"><tspan id="SvgjsTspan1403" dy="16.25" x="50"><tspan id="SvgjsTspan1404" style="">验证集</tspan></tspan></text></g></g><g id="SvgjsG1405" transform="translate(55.00416056315112,321.7420826773358)"><path id="SvgjsPath1406" d="M 15 0L 100 0L 85 45L 0 45L 15 0Z" stroke="rgba(50,50,50,1)" stroke-width="1.5" fill-opacity="1" fill="#ffffff"></path><g id="SvgjsG1407"><text id="SvgjsText1408" font-family="微软雅黑" text-anchor="middle" font-size="13px" width="70px" fill="#323232" font-weight="400" align="middle" lineHeight="125%" anchor="middle" family="微软雅黑" size="13px" weight="400" font-style="" opacity="1" y="11.875" transform="rotate(0)"><tspan id="SvgjsTspan1409" dy="16.25" x="50"><tspan id="SvgjsTspan1410" style="">训练集</tspan></tspan></text></g></g><g id="SvgjsG1411"><path id="SvgjsPath1412" d="M260.8374938964844 144.27199635953986L260.8374938964844 158.44756630139472L260.8374938964844 158.44756630139472L260.8374938964844 170.67313624324962" stroke="#323232" stroke-width="1.5" fill="none" marker-end="url(#SvgjsMarker1413)"></path></g><g id="SvgjsG1415" transform="translate(210.83749389648438,173.3731362432496)"><path id="SvgjsPath1416" d="M 0 0L 100 0L 100 45L 0 45Z" stroke="rgba(50,50,50,1)" stroke-width="1.5" fill-opacity="1" fill="#ffffff"></path><g id="SvgjsG1417"><text id="SvgjsText1418" font-family="微软雅黑" text-anchor="middle" font-size="13px" width="80px" fill="#323232" font-weight="400" align="middle" lineHeight="125%" anchor="middle" family="微软雅黑" size="13px" weight="400" font-style="" opacity="1" y="3.375" transform="rotate(0)"><tspan id="SvgjsTspan1419" dy="16.25" x="50"><tspan id="SvgjsTspan1420" style="">自定义</tspan></tspan><tspan id="SvgjsTspan1421" dy="16.25" x="50"><tspan id="SvgjsTspan1422" style="">DataLoader</tspan></tspan></text></g></g><g id="SvgjsG1423"><path id="SvgjsPath1424" d="M260.8374938964844 218.69456481467816L260.8374938964844 232.75108713748543L260.8374938964844 232.75108713748543L260.8374938964844 244.85760946029268" stroke="#323232" stroke-width="1.5" fill="none" marker-end="url(#SvgjsMarker1425)"></path></g><g id="SvgjsG1427" transform="translate(210.83749389648438,247.55760946029272)"><path id="SvgjsPath1428" d="M 0 0L 100 0L 100 45L 0 45Z" stroke="rgba(50,50,50,1)" stroke-width="1.5" fill-opacity="1" fill="#ffffff"></path><g id="SvgjsG1429"><text id="SvgjsText1430" font-family="微软雅黑" text-anchor="middle" font-size="13px" width="80px" fill="#323232" font-weight="400" align="middle" lineHeight="125%" anchor="middle" family="微软雅黑" size="13px" weight="400" font-style="" opacity="1" y="3.375" transform="rotate(0)"><tspan id="SvgjsTspan1431" dy="16.25" x="50"><tspan id="SvgjsTspan1432" style="">自定义</tspan></tspan><tspan id="SvgjsTspan1433" dy="16.25" x="50"><tspan id="SvgjsTspan1434" style="">模型超参数</tspan></tspan></text></g></g><g id="SvgjsG1435"><path id="SvgjsPath1436" d="M260.8374938964844 292.8790380317213L260.8374938964844 306.93556035452855L260.8374938964844 306.93556035452855L260.8374938964844 319.0420826773358" stroke="#323232" stroke-width="1.5" fill="none" marker-end="url(#SvgjsMarker1437)"></path></g><g id="SvgjsG1439" transform="translate(210.83749389648438,321.7420826773358)"><path id="SvgjsPath1440" d="M 0 0L 100 0L 100 45L 0 45Z" stroke="rgba(50,50,50,1)" stroke-width="1.5" fill-opacity="1" fill="#ffffff"></path><g id="SvgjsG1441"><text id="SvgjsText1442" font-family="微软雅黑" text-anchor="middle" font-size="13px" width="80px" fill="#323232" font-weight="400" align="middle" lineHeight="125%" anchor="middle" family="微软雅黑" size="13px" weight="400" font-style="" opacity="1" y="11.875" transform="rotate(0)"><tspan id="SvgjsTspan1443" dy="16.25" x="50"><tspan id="SvgjsTspan1444" style="">训练模型</tspan></tspan></text></g></g><g id="SvgjsG1445"><path id="SvgjsPath1446" d="M148.25416056315123 344.2420826773358L179.1708272298178 344.2420826773358L179.1708272298178 344.2420826773358L208.1374938964844 344.2420826773358" stroke="#323232" stroke-width="1.5" fill="none" marker-end="url(#SvgjsMarker1447)"></path></g><g id="SvgjsG1449"><path id="SvgjsPath1450" d="M54.25416056315112 270.0576094602927L25.004160563151117 270.0576094602927L25.004160563151117 530.111029111422L59.804160563151115 530.111029111422" stroke="#323232" stroke-width="1.5" fill="none" marker-end="url(#SvgjsMarker1451)"></path></g><g id="SvgjsG1453"><path id="SvgjsPath1454" d="M54.25416056315112 270.0576094602927L25.004160563151117 270.0576094602927L25.004160563151117 344.2420826773358L59.804160563151115 344.2420826773358" stroke="#323232" stroke-width="1.5" fill="none" marker-end="url(#SvgjsMarker1455)"></path></g><g id="SvgjsG1457"><path id="SvgjsPath1458" d="M54.25416056315112 270.0576094602927L25.004160563151117 270.0576094602927L25.004160563151117 430.9265558943789L59.804160563151115 430.9265558943789" stroke="#323232" stroke-width="1.5" fill="none" marker-end="url(#SvgjsMarker1459)"></path></g><g id="SvgjsG1461"><path id="SvgjsPath1462" d="M260.8374938964844 367.4920826773358L260.8374938964844 381.33431928585736L260.8374938964844 381.33431928585736L260.8374938964844 393.2265558943789" stroke="#323232" stroke-width="1.5" fill="none" marker-end="url(#SvgjsMarker1463)"></path></g><g id="SvgjsG1465" transform="translate(210.83749389648438,395.9265558943789)"><path id="SvgjsPath1466" d="M 0 35L 50 0L 100 35L 50 70L 0 35Z" stroke="rgba(50,50,50,1)" stroke-width="1.5" fill-opacity="1" fill="#ffffff"></path><g id="SvgjsG1467"><text id="SvgjsText1468" font-family="微软雅黑" text-anchor="middle" font-size="13px" width="80px" fill="#323232" font-weight="400" align="middle" lineHeight="125%" anchor="middle" family="微软雅黑" size="13px" weight="400" font-style="" opacity="1" y="24.375" transform="rotate(0)"><tspan id="SvgjsTspan1469" dy="16.25" x="50"><tspan id="SvgjsTspan1470" style="">精度提升</tspan></tspan></text></g></g><g id="SvgjsG1471"><path id="SvgjsPath1472" d="M148.25416056315112 430.9265558943789L179.17082722981775 430.9265558943789L179.17082722981775 430.9265558943789L208.1374938964844 430.9265558943789" stroke="#323232" stroke-width="1.5" fill="none" marker-end="url(#SvgjsMarker1473)"></path></g><g id="SvgjsG1475" transform="translate(355.51698107597156,408.4265558943789)"><path id="SvgjsPath1476" d="M 0 0L 100 0L 100 45L 0 45Z" stroke="rgba(50,50,50,1)" stroke-width="1.5" fill-opacity="1" fill="#ffffff"></path><g id="SvgjsG1477"><text id="SvgjsText1478" font-family="微软雅黑" text-anchor="middle" font-size="13px" width="80px" fill="#323232" font-weight="400" align="middle" lineHeight="125%" anchor="middle" family="微软雅黑" size="13px" weight="400" font-style="" opacity="1" y="11.875" transform="rotate(0)"><tspan id="SvgjsTspan1479" dy="16.25" x="50"><tspan id="SvgjsTspan1480" style="">保存模型</tspan></tspan></text></g></g><g id="SvgjsG1481" transform="translate(310.8374938964844,408.4265558943789)"><path id="SvgjsPath1482" d="M 0 0L 29.807692307692378 0L 29.807692307692378 20L 0 20Z" stroke="none" fill="none"></path><g id="SvgjsG1483"><text id="SvgjsText1484" font-family="微软雅黑" text-anchor="middle" font-size="13px" width="30px" fill="#323232" font-weight="400" align="middle" lineHeight="125%" anchor="middle" family="微软雅黑" size="13px" weight="400" font-style="" opacity="1" y="-0.625" transform="rotate(0)"><tspan id="SvgjsTspan1485" dy="16.25" x="15"><tspan id="SvgjsTspan1486" style="">是</tspan></tspan></text></g></g><g id="SvgjsG1487" transform="translate(225.51698107597167,464.30120015755665)"><path id="SvgjsPath1488" d="M 0 0L 30.8974358974358 0L 30.8974358974358 20L 0 20Z" stroke="none" fill="none"></path><g id="SvgjsG1489"><text id="SvgjsText1490" font-family="微软雅黑" text-anchor="middle" font-size="13px" width="31px" fill="#323232" font-weight="400" align="middle" lineHeight="125%" anchor="middle" family="微软雅黑" size="13px" weight="400" font-style="" opacity="1" y="-0.625" transform="rotate(0)"><tspan id="SvgjsTspan1491" dy="16.25" x="15.5"><tspan id="SvgjsTspan1492" style="">否</tspan></tspan></text></g></g><g id="SvgjsG1493" transform="translate(355.51698107597156,591.7955023284651)"><path id="SvgjsPath1494" d="M 0 43.75L 0 0L 100 0L 100 43.75Q 75 31.25 50 43.75Q 25 56.25 0 43.75Z" stroke="rgba(50,50,50,1)" stroke-width="1.5" fill-opacity="1" fill="#ffffff"></path><g id="SvgjsG1495"><text id="SvgjsText1496" font-family="微软雅黑" text-anchor="middle" font-size="13px" width="100px" fill="#323232" font-weight="400" align="middle" lineHeight="125%" anchor="middle" family="微软雅黑" size="13px" weight="400" font-style="" opacity="1" y="11.875" transform="rotate(0)"><tspan id="SvgjsTspan1497" dy="16.25" x="50"><tspan id="SvgjsTspan1498" style="">PyTorch 模型</tspan></tspan></text></g></g><g id="SvgjsG1499" transform="translate(210.83749389648438,495.111029111422)"><path id="SvgjsPath1500" d="M 0 35L 50 0L 100 35L 50 70L 0 35Z" stroke="rgba(50,50,50,1)" stroke-width="1.5" fill-opacity="1" fill="#ffffff"></path><g id="SvgjsG1501"><text id="SvgjsText1502" font-family="微软雅黑" text-anchor="middle" font-size="13px" width="80px" fill="#323232" font-weight="400" align="middle" lineHeight="125%" anchor="middle" family="微软雅黑" size="13px" weight="400" font-style="" opacity="1" y="15.875" transform="rotate(0)"><tspan id="SvgjsTspan1503" dy="16.25" x="50"><tspan id="SvgjsTspan1504" style="">达到最大</tspan></tspan><tspan id="SvgjsTspan1505" dy="16.25" x="50"><tspan id="SvgjsTspan1506" style="">迭代次数</tspan></tspan></text></g></g><g id="SvgjsG1507"><path id="SvgjsPath1508" d="M260.8374938964844 466.6765558943789L260.8374938964844 480.51879250290045L260.8374938964844 480.51879250290045L260.8374938964844 492.411029111422" stroke="#323232" stroke-width="1.5" fill="none" marker-end="url(#SvgjsMarker1509)"></path></g><g id="SvgjsG1511"><path id="SvgjsPath1512" d="M311.5874938964844 430.9265558943789L333.17723748622797 430.9265558943789L333.17723748622797 430.9265558943789L352.81698107597157 430.9265558943789" stroke="#323232" stroke-width="1.5" fill="none" marker-end="url(#SvgjsMarker1513)"></path></g><g id="SvgjsG1515" transform="translate(226.06185287084338,568.5780878515325)"><path id="SvgjsPath1516" d="M 0 0L 29.807692307692378 0L 29.807692307692378 20L 0 20Z" stroke="none" fill="none"></path><g id="SvgjsG1517"><text id="SvgjsText1518" font-family="微软雅黑" text-anchor="middle" font-size="13px" width="30px" fill="#323232" font-weight="400" align="middle" lineHeight="125%" anchor="middle" family="微软雅黑" size="13px" weight="400" font-style="" opacity="1" y="-0.625" transform="rotate(0)"><tspan id="SvgjsTspan1519" dy="16.25" x="15"><tspan id="SvgjsTspan1520" style="">是</tspan></tspan></text></g></g><g id="SvgjsG1521"><path id="SvgjsPath1522" d="M260.8374938964844 565.861029111422L260.8374938964844 580.3007929881121L260.8374938964844 580.3007929881121L260.8374938964844 592.7905568648023" stroke="#323232" stroke-width="1.5" fill="none" marker-end="url(#SvgjsMarker1523)"></path></g><g id="SvgjsG1525" transform="translate(210.83749389648438,594.2955023284651)"><path id="SvgjsPath1526" d="M 0 0L 100 0L 100 45L 0 45Z" stroke="rgba(50,50,50,1)" stroke-width="1.5" fill-opacity="1" fill="#ffffff"></path><g id="SvgjsG1527"><text id="SvgjsText1528" font-family="微软雅黑" text-anchor="middle" font-size="13px" width="80px" fill="#323232" font-weight="400" align="middle" lineHeight="125%" anchor="middle" family="微软雅黑" size="13px" weight="400" font-style="" opacity="1" y="11.875" transform="rotate(0)"><tspan id="SvgjsTspan1529" dy="16.25" x="50"><tspan id="SvgjsTspan1530" style="">测试模型</tspan></tspan></text></g></g><g id="SvgjsG1531"><path id="SvgjsPath1532" d="M105.00416056315112 553.361029111422L105.00416056315112 616.7955023284651L208.1374938964844 616.7955023284651" stroke="#323232" stroke-width="1.5" fill="none" marker-end="url(#SvgjsMarker1533)"></path></g><g id="SvgjsG1535"><path id="SvgjsPath1536" d="M260.8374938964844 640.0455023284651L260.8374938964844 652.9986589601189L260.8374938964844 652.9986589601189L260.8374938964844 664.0018155917726" stroke="#323232" stroke-width="1.5" fill="none" marker-end="url(#SvgjsMarker1537)"></path></g><g id="SvgjsG1539" transform="translate(210.83749389648438,668.4799755455082)"><path id="SvgjsPath1540" d="M 0 0L 100 0L 100 45L 0 45Z" stroke="rgba(50,50,50,1)" stroke-width="1.5" fill-opacity="1" fill="#ffffff"></path><g id="SvgjsG1541"><text id="SvgjsText1542" font-family="微软雅黑" text-anchor="middle" font-size="13px" width="80px" fill="#323232" font-weight="400" align="middle" lineHeight="125%" anchor="middle" family="微软雅黑" size="13px" weight="400" font-style="" opacity="1" y="11.875" transform="rotate(0)"><tspan id="SvgjsTspan1543" dy="16.25" x="50"><tspan id="SvgjsTspan1544" style="">测试结果</tspan></tspan></text></g></g><g id="SvgjsG1545"><path id="SvgjsPath1546" d="M260.8374938964844 714.2299755455082L260.8374938964844 726.446743489127L260.8374938964844 726.446743489127L260.8374938964844 736.7135114327458" stroke="#323232" stroke-width="1.5" fill="none" marker-end="url(#SvgjsMarker1547)"></path></g><g id="SvgjsG1549" transform="translate(210.83749389648438,742.6644487625513)"><path id="SvgjsPath1550" d="M 15 0L 85 0C 105 0 105 45 85 45L 15 45C -5 45 -5 0 15 0Z" stroke="rgba(50,50,50,1)" stroke-width="1.5" fill-opacity="1" fill="#ffffff"></path><g id="SvgjsG1551"><text id="SvgjsText1552" font-family="微软雅黑" text-anchor="middle" font-size="13px" width="80px" fill="#323232" font-weight="400" align="middle" lineHeight="125%" anchor="middle" family="微软雅黑" size="13px" weight="400" font-style="" opacity="1" y="11.875" transform="rotate(0)"><tspan id="SvgjsTspan1553" dy="16.25" x="50"><tspan id="SvgjsTspan1554" style="">结束</tspan></tspan></text></g></g><g id="SvgjsG1555" transform="translate(179.94005799904858,501.2648752652681)"><path id="SvgjsPath1556" d="M 0 0L 30.8974358974358 0L 30.8974358974358 20L 0 20Z" stroke="none" fill="none"></path><g id="SvgjsG1557"><text id="SvgjsText1558" font-family="微软雅黑" text-anchor="middle" font-size="13px" width="31px" fill="#323232" font-weight="400" align="middle" lineHeight="125%" anchor="middle" family="微软雅黑" size="13px" weight="400" font-style="" opacity="1" y="-0.625" transform="rotate(0)"><tspan id="SvgjsTspan1559" dy="16.25" x="15.5"><tspan id="SvgjsTspan1560" style="">否</tspan></tspan></text></g></g><g id="SvgjsG1561"><path id="SvgjsPath1562" d="M210.08749389648438 530.111029111422L180.83749389648438 530.111029111422L180.83749389648438 354.6321650913784L208.1374938964844 354.6321650913784" stroke="#000000" stroke-width="1.5" fill="none" marker-end="url(#SvgjsMarker1563)"></path></g><g id="SvgjsG1565" transform="translate(355.51698107597156,518.5780878515325)"><path id="SvgjsPath1566" d="M 0 43.75L 0 0L 100 0L 100 43.75Q 75 31.25 50 43.75Q 25 56.25 0 43.75Z" stroke="rgba(50,50,50,1)" stroke-width="1.5" fill-opacity="1" fill="#ffffff"></path><g id="SvgjsG1567"><text id="SvgjsText1568" font-family="微软雅黑" text-anchor="middle" font-size="13px" width="100px" fill="#323232" font-weight="400" align="middle" lineHeight="125%" anchor="middle" family="微软雅黑" size="13px" weight="400" font-style="" opacity="1" y="11.875" transform="rotate(0)"><tspan id="SvgjsTspan1569" dy="16.25" x="50"><tspan id="SvgjsTspan1570" style="">TorchScript 模型</tspan></tspan></text></g></g><g id="SvgjsG1571"><path id="SvgjsPath1572" d="M354.76698107597156 616.7955023284651L333.17723748622797 616.7955023284651L333.17723748622797 616.7955023284651L313.53749389648436 616.7955023284651" stroke="#323232" stroke-width="1.5" fill="none" marker-end="url(#SvgjsMarker1573)"></path></g><g id="SvgjsG1575"><path id="SvgjsPath1576" d="M456.26698107597156 430.9265558943789L485.51698107597156 430.9265558943789L485.51698107597156 543.5780878515324L458.21698107597155 543.5780878515324" stroke="#323232" stroke-width="1.5" fill="none" marker-end="url(#SvgjsMarker1577)"></path></g><g id="SvgjsG1579"><path id="SvgjsPath1580" d="M456.26698107597156 430.9265558943789L485.51698107597156 430.9265558943789L485.51698107597156 616.7955023284651L458.21698107597155 616.7955023284651" stroke="#323232" stroke-width="1.5" fill="none" marker-end="url(#SvgjsMarker1581)"></path></g><g id="SvgjsG1583"><path id="SvgjsPath1584" d="M405.51698107597156 454.1765558943789L405.51698107597156 479.34179834219117L338.14518620417675 479.34179834219117L338.14518620417675 530.111029111422L313.53749389648436 530.111029111422" stroke="#323232" stroke-width="1.5" fill="none" marker-end="url(#SvgjsMarker1585)"></path></g></svg>