<svg id="SvgjsSvg1006" width="310.675048828125" height="543.5750325520834" xmlns="http://www.w3.org/2000/svg" version="1.1" xmlns:xlink="http://www.w3.org/1999/xlink" xmlns:svgjs="http://svgjs.com/svgjs"><defs id="SvgjsDefs1007"><pattern patternUnits="userSpaceOnUse" id="pattern_mark_0" width="300" height="300"><text x="150" y="100" fill="rgba(229,229,229,0.8)" font-size="18" transform="rotate(-45, 150, 150)" style="dominant-baseline: middle; text-anchor: middle;"></text></pattern><pattern patternUnits="userSpaceOnUse" id="pattern_mark_1" width="300" height="300"><text x="150" y="200" fill="rgba(229,229,229,0.8)" font-size="18" transform="rotate(-45, 150, 150)" style="dominant-baseline: middle; text-anchor: middle;"></text></pattern><marker id="SvgjsMarker1031" markerWidth="13" markerHeight="9" refX="9.5" refY="4.5" viewBox="0 0 13 9" orient="auto" markerUnits="userSpaceOnUse" stroke-dasharray="0,0"><path id="SvgjsPath1032" d="M0,0 L13,4.5 L0,9 L0,0" fill="#323232" stroke="#323232" stroke-width="1"></path></marker><marker id="SvgjsMarker1043" markerWidth="13" markerHeight="9" refX="9.5" refY="4.5" viewBox="0 0 13 9" orient="auto" markerUnits="userSpaceOnUse" stroke-dasharray="0,0"><path id="SvgjsPath1044" d="M0,0 L13,4.5 L0,9 L0,0" fill="#323232" stroke="#323232" stroke-width="1"></path></marker><marker id="SvgjsMarker1071" markerWidth="13" markerHeight="9" refX="9.5" refY="4.5" viewBox="0 0 13 9" orient="auto" markerUnits="userSpaceOnUse" stroke-dasharray="0,0"><path id="SvgjsPath1072" d="M0,0 L13,4.5 L0,9 L0,0" fill="#323232" stroke="#323232" stroke-width="1"></path></marker><marker id="SvgjsMarker1075" markerWidth="13" markerHeight="9" refX="9.5" refY="4.5" viewBox="0 0 13 9" orient="auto" markerUnits="userSpaceOnUse" stroke-dasharray="0,0"><path id="SvgjsPath1076" d="M0,0 L13,4.5 L0,9 L0,0" fill="#323232" stroke="#323232" stroke-width="1"></path></marker><marker id="SvgjsMarker1088" markerWidth="13" markerHeight="9" refX="9.5" refY="4.5" viewBox="0 0 13 9" orient="auto" markerUnits="userSpaceOnUse" stroke-dasharray="0,0"><path id="SvgjsPath1089" d="M0,0 L13,4.5 L0,9 L0,0" fill="#323232" stroke="#323232" stroke-width="1"></path></marker><marker id="SvgjsMarker1092" markerWidth="13" markerHeight="9" refX="9.5" refY="4.5" viewBox="0 0 13 9" orient="auto" markerUnits="userSpaceOnUse" stroke-dasharray="0,0"><path id="SvgjsPath1093" d="M0,0 L13,4.5 L0,9 L0,0" fill="#323232" stroke="#323232" stroke-width="1"></path></marker><marker id="SvgjsMarker1096" markerWidth="13" markerHeight="9" refX="9.5" refY="4.5" viewBox="0 0 13 9" orient="auto" markerUnits="userSpaceOnUse" stroke-dasharray="0,0"><path id="SvgjsPath1097" d="M0,0 L13,4.5 L0,9 L0,0" fill="#323232" stroke="#323232" stroke-width="1"></path></marker></defs><rect id="svgbackgroundid" width="310.675048828125" height="543.5750325520834" fill="transparent"></rect><rect id="SvgjsRect1009" width="310.675048828125" height="543.5750325520834" fill="url(#pattern_mark_0)"></rect><rect id="SvgjsRect1010" width="310.675048828125" height="543.5750325520834" fill="url(#pattern_mark_1)"></rect><g id="SvgjsG1011" transform="translate(175.679219563802,25.004201253255168)"><path id="SvgjsPath1012" d="M 15 0L 85 0C 105 0 105 45 85 45L 15 45C -5 45 -5 0 15 0Z" stroke="rgba(33,41,48,1)" stroke-width="1.5" fill-opacity="1" fill="#ffffff"></path><g id="SvgjsG1013"><text id="SvgjsText1014" font-family="微软雅黑" text-anchor="middle" font-size="13px" width="80px" fill="#323232" font-weight="400" align="middle" lineHeight="125%" anchor="middle" family="微软雅黑" size="13px" weight="400" font-style="" opacity="1" y="11.875" transform="rotate(0)"><tspan id="SvgjsTspan1015" dy="16.25" x="50"><tspan id="SvgjsTspan1016" style="">开始</tspan></tspan></text></g></g><g id="SvgjsG1017" transform="translate(25.01255289713538,247.55762090438446)"><path id="SvgjsPath1018" d="M 0 43.75L 0 0L 100 0L 100 43.75Q 75 31.25 50 43.75Q 25 56.25 0 43.75Z" stroke="rgba(33,41,48,1)" stroke-width="1.5" fill-opacity="1" fill="#ffffff"></path><g id="SvgjsG1019"><text id="SvgjsText1020" font-family="微软雅黑" text-anchor="middle" font-size="13px" width="100px" fill="#323232" font-weight="400" align="middle" lineHeight="125%" anchor="middle" family="微软雅黑" size="13px" weight="400" font-style="" opacity="1" y="11.875" transform="rotate(0)"><tspan id="SvgjsTspan1021" dy="16.25" x="50"><tspan id="SvgjsTspan1022" style="">TorchScript 模型</tspan></tspan></text></g></g><g id="SvgjsG1023" transform="translate(175.679219563802,99.76651759365001)"><path id="SvgjsPath1024" d="M 0 0L 100 0L 100 45L 0 45Z" stroke="rgba(33,41,48,1)" stroke-width="1.5" fill-opacity="1" fill="#ffffff"></path><g id="SvgjsG1025"><text id="SvgjsText1026" font-family="微软雅黑" text-anchor="middle" font-size="13px" width="80px" fill="#323232" font-weight="400" align="middle" lineHeight="125%" anchor="middle" family="微软雅黑" size="13px" weight="400" font-style="" opacity="1" y="11.875" transform="rotate(0)"><tspan id="SvgjsTspan1027" dy="16.25" x="50"><tspan id="SvgjsTspan1028" style="">重写 Handler</tspan></tspan></text></g></g><g id="SvgjsG1029"><path id="SvgjsPath1030" d="M225.679219563802 70.75420125325519C 225.679219563802 81.90912778941302 225.679219563802 87.861591057492 225.679219563802 97.06651759365002" stroke="#323232" stroke-width="1.5" fill="none" marker-end="url(#SvgjsMarker1031)"></path></g><g id="SvgjsG1033" transform="translate(165.679219563802,250.05762090438446)"><path id="SvgjsPath1034" d="M 0 0L 120 0L 120 45L 0 45Z" stroke="rgba(33,41,48,1)" stroke-width="1.5" fill-opacity="1" fill="#ffffff"></path><g id="SvgjsG1035"><text id="SvgjsText1036" font-family="微软雅黑" text-anchor="middle" font-size="13px" width="100px" fill="#323232" font-weight="400" align="middle" lineHeight="125%" anchor="middle" family="微软雅黑" size="13px" weight="400" font-style="" opacity="1" y="3.375" transform="rotate(0)"><tspan id="SvgjsTspan1037" dy="16.25" x="60"><tspan id="SvgjsTspan1038" style="">转译得到</tspan></tspan><tspan id="SvgjsTspan1039" dy="16.25" x="60"><tspan id="SvgjsTspan1040" style="">TorchServe 模型</tspan></tspan></text></g></g><g id="SvgjsG1041"><path id="SvgjsPath1042" d="M125.76255289713538 272.5576209043844C 141.27921956380203 272.5576209043844 149.41255289713536 272.5576209043844 162.97921956380196 272.5576209043844" stroke="#323232" stroke-width="1.5" fill="none" marker-end="url(#SvgjsMarker1043)"></path></g><g id="SvgjsG1045" transform="translate(175.679219563802,173.37314768734134)"><path id="SvgjsPath1046" d="M 0 0L 100 0L 100 45L 0 45Z" stroke="rgba(33,41,48,1)" stroke-width="1.5" fill-opacity="1" fill="#ffffff"></path><g id="SvgjsG1047"><text id="SvgjsText1048" font-family="微软雅黑" text-anchor="middle" font-size="13px" width="80px" fill="#323232" font-weight="400" align="middle" lineHeight="125%" anchor="middle" family="微软雅黑" size="13px" weight="400" font-style="" opacity="1" y="11.875" transform="rotate(0)"><tspan id="SvgjsTspan1049" dy="16.25" x="50"><tspan id="SvgjsTspan1050" style="">配置类别映射</tspan></tspan></text></g></g><g id="SvgjsG1051" transform="translate(175.679219563802,324.0534666148344)"><path id="SvgjsPath1052" d="M 0 0L 100 0L 100 45L 0 45Z" stroke="rgba(33,41,48,1)" stroke-width="1.5" fill-opacity="1" fill="#ffffff"></path><g id="SvgjsG1053"><text id="SvgjsText1054" font-family="微软雅黑" text-anchor="middle" font-size="13px" width="80px" fill="#323232" font-weight="400" align="middle" lineHeight="125%" anchor="middle" family="微软雅黑" size="13px" weight="400" font-style="" opacity="1" y="11.875" transform="rotate(0)"><tspan id="SvgjsTspan1055" dy="16.25" x="50"><tspan id="SvgjsTspan1056" style="">启动服务</tspan></tspan></text></g></g><g id="SvgjsG1057" transform="translate(175.679219563802,398.81578295522934)"><path id="SvgjsPath1058" d="M 0 0L 100 0L 100 45L 0 45Z" stroke="rgba(33,41,48,1)" stroke-width="1.5" fill-opacity="1" fill="#ffffff"></path><g id="SvgjsG1059"><text id="SvgjsText1060" font-family="微软雅黑" text-anchor="middle" font-size="13px" width="80px" fill="#323232" font-weight="400" align="middle" lineHeight="125%" anchor="middle" family="微软雅黑" size="13px" weight="400" font-style="" opacity="1" y="11.875" transform="rotate(0)"><tspan id="SvgjsTspan1061" dy="16.25" x="50"><tspan id="SvgjsTspan1062" style="">调用接口测试</tspan></tspan></text></g></g><g id="SvgjsG1063" transform="translate(175.679219563802,473.57809929562416)"><path id="SvgjsPath1064" d="M 15 0L 85 0C 105 0 105 45 85 45L 15 45C -5 45 -5 0 15 0Z" stroke="rgba(33,41,48,1)" stroke-width="1.5" fill-opacity="1" fill="#ffffff"></path><g id="SvgjsG1065"><text id="SvgjsText1066" font-family="微软雅黑" text-anchor="middle" font-size="13px" width="80px" fill="#323232" font-weight="400" align="middle" lineHeight="125%" anchor="middle" family="微软雅黑" size="13px" weight="400" font-style="" opacity="1" y="11.875" transform="rotate(0)"><tspan id="SvgjsTspan1067" dy="16.25" x="50"><tspan id="SvgjsTspan1068" style="">结束</tspan></tspan></text></g></g><g id="SvgjsG1069"><path id="SvgjsPath1070" d="M225.679219563802 369.8034666148345C 225.679219563802 380.9583931509925 225.679219563802 386.91085641907137 225.679219563802 396.11578295522935" stroke="#323232" stroke-width="1.5" fill="none" marker-end="url(#SvgjsMarker1071)"></path></g><g id="SvgjsG1073"><path id="SvgjsPath1074" d="M225.679219563802 444.56578295522934C 225.679219563802 455.7207094913873 225.679219563802 461.6731727594662 225.679219563802 470.87809929562417" stroke="#323232" stroke-width="1.5" fill="none" marker-end="url(#SvgjsMarker1075)"></path></g><g id="SvgjsG1077" transform="translate(78.60779099237345,398.81578295522934)"><path id="SvgjsPath1078" d="M 72.5595238095238 0L 87.07142857142856 0L 87.07142857142856 45L 72.5595238095238 45" stroke-dasharray="10,6" stroke="rgba(33,41,48,1)" stroke-width="1.5" fill="none"></path><path id="SvgjsPath1079" d="M 0 0L 87.07142857142856 0L 87.07142857142856 45L 0 45Z" stroke="none" fill="none"></path><g id="SvgjsG1080"><text id="SvgjsText1081" font-family="微软雅黑" text-anchor="start" font-size="13px" width="68px" fill="#000000" font-weight="400" align="middle" lineHeight="125%" anchor="start" family="微软雅黑" size="13px" weight="400" font-style="" opacity="1" y="3.375" transform="rotate(0)"><tspan id="SvgjsTspan1082" dy="16.25" x="10"><tspan id="SvgjsTspan1083" style="">正常: 0.98</tspan></tspan><tspan id="SvgjsTspan1084" dy="16.25" x="10"><tspan id="SvgjsTspan1085" style="">异常: 0.02</tspan></tspan></text></g></g><g id="SvgjsG1086"><path id="SvgjsPath1087" d="M225.679219563802 145.51651759365004L225.679219563802 159.0698326404957L225.679219563802 159.0698326404957L225.679219563802 170.67314768734136" stroke="#323232" stroke-width="1.5" fill="none" marker-end="url(#SvgjsMarker1088)"></path></g><g id="SvgjsG1090"><path id="SvgjsPath1091" d="M225.679219563802 219.12314768734134L225.679219563802 234.2153842958629L225.679219563802 234.2153842958629L225.679219563802 247.35762090438448" stroke="#323232" stroke-width="1.5" fill="none" marker-end="url(#SvgjsMarker1092)"></path></g><g id="SvgjsG1094"><path id="SvgjsPath1095" d="M225.679219563802 295.8076209043845L225.679219563802 309.55554375960946L225.679219563802 309.55554375960946L225.679219563802 321.3534666148344" stroke="#323232" stroke-width="1.5" fill="none" marker-end="url(#SvgjsMarker1096)"></path></g></svg>